<?xml version="1.0" encoding="UTF-8" standalone="no"?>
<!-- Created with Inkscape (http://www.inkscape.org/) -->

<svg
   width="198.32637mm"
   height="182.76456mm"
   viewBox="0 0 198.32637 182.76456"
   version="1.1"
   id="svg5"
   xml:space="preserve"
   inkscape:export-filename="Rastergrafik.svg"
   inkscape:export-xdpi="96"
   inkscape:export-ydpi="96"
   inkscape:version="1.2.1 (9c6d41e4, 2022-07-14)"
   sodipodi:docname="Zeichnung.svg"
   xmlns:inkscape="http://www.inkscape.org/namespaces/inkscape"
   xmlns:sodipodi="http://sodipodi.sourceforge.net/DTD/sodipodi-0.dtd"
   xmlns="http://www.w3.org/2000/svg"
   xmlns:svg="http://www.w3.org/2000/svg"><sodipodi:namedview
     id="namedview7"
     pagecolor="#ffffff"
     bordercolor="#000000"
     borderopacity="0.25"
     inkscape:showpageshadow="2"
     inkscape:pageopacity="0.0"
     inkscape:pagecheckerboard="0"
     inkscape:deskcolor="#d1d1d1"
     inkscape:document-units="mm"
     showgrid="false"
     inkscape:zoom="0.72776573"
     inkscape:cx="472.67958"
     inkscape:cy="678.10283"
     inkscape:window-width="1920"
     inkscape:window-height="1103"
     inkscape:window-x="0"
     inkscape:window-y="25"
     inkscape:window-maximized="1"
     inkscape:current-layer="layer3"
     showguides="true"
     inkscape:lockguides="false" /><defs
     id="defs2" /><g
     id="Layer_1-3"
     data-name="Layer_1"
     transform="matrix(0.10577406,0,0,0.09747444,2.9200436e-7,-6.3589862e-6)"
     style="display:inline"
     inkscape:export-filename="./Layer_1-3.svg"
     inkscape:export-xdpi="96"
     inkscape:export-ydpi="96"
     inkscape:label="circle"><circle
       cx="937.5"
       cy="937.5"
       r="937.5"
       style="display:inline;fill:#988430"
       id="circle11" /><circle
       cx="937.5"
       cy="937.5"
       r="907.46997"
       style="display:inline;fill:#7a6a2a"
       id="circle13" /><circle
       cx="937.5"
       cy="937.5"
       r="888.34998"
       style="display:inline;fill:#ba9f33"
       id="circle15" /></g><g
     inkscape:groupmode="layer"
     id="layer3"
     inkscape:label="rick"
     style="display:inline"
     transform="matrix(1.2368085,0,0,1.2326029,-26.97461,-137.84883)"><path
       style="fill:#e0cd81;fill-opacity:1;stroke-width:0.848212"
       d="m 508.92709,927.79843 c -2.7991,-0.84122 -8.90623,-2.36876 -13.57139,-3.39453 -4.66517,-1.02577 -8.78604,-2.11704 -9.1575,-2.42503 -0.37146,-0.30801 1.31573,-3.76768 3.74931,-7.68817 2.43357,-3.92049 6.07708,-10.68525 8.09667,-15.03279 2.0196,-4.34754 6.08824,-11.40891 9.04142,-15.69192 7.67365,-11.12911 8.85141,-13.24609 12.91033,-23.20563 3.35602,-8.23482 4.01136,-9.21978 8.5814,-12.89762 3.67518,-2.95769 5.71153,-5.47837 7.91664,-9.79957 l 2.96874,-5.81764 v -12.00326 -12.00326 l -3.27957,-6.63837 c -4.17504,-8.45097 -12.63398,-17.33149 -19.5051,-20.47719 l -4.78221,-2.18936 -0.0148,-4.81505 c -0.042,-13.6813 -1.78838,-63.87337 -2.54333,-73.09608 -2.02785,-24.77297 -5.27081,-40.82914 -10.55765,-52.2718 -15.59553,-33.75447 -54.89983,-57.0331 -100.15373,-59.31773 -29.36642,-1.48255 -58.6946,4.14203 -81.78939,15.68563 -12.7806,6.38819 -20.66245,12.04855 -30.6746,22.02894 -16.68426,16.63135 -26.08861,34.56451 -30.22006,57.62664 -2.10895,11.77227 -2.08481,75.03418 0.037,97.08293 2.08194,21.63416 2.09022,21.50998 -1.53756,23.02577 -3.86861,1.61641 -10.37876,8.33582 -13.30965,13.73748 -4.50673,8.30596 -6.14513,20.61275 -3.98956,29.9674 1.43324,6.21994 5.63396,14.04809 10.24694,19.09541 3.33191,3.64564 6.11716,5.59722 12.06461,8.45347 6.43537,3.09057 8.32061,4.47279 11.23753,8.23916 1.9277,2.48909 5.85267,7.07889 8.72214,10.19956 3.59254,3.90704 5.70777,7.09976 6.79248,10.25248 0.86638,2.51819 2.14137,5.69034 2.8333,7.04923 0.69194,1.35889 1.52299,3.32951 1.84679,4.37917 0.5011,1.62443 0.2756,1.90848 -1.51509,1.90848 -1.1571,0 -7.95791,1.11787 -15.11292,2.48415 -12.80899,2.44594 -23.62134,3.98101 -23.60176,3.35084 0.005,-0.17689 1.88429,-5.41974 4.17512,-11.65077 3.09902,-8.42935 5.17446,-12.6289 8.10846,-16.40706 2.16884,-2.79284 3.75125,-5.57847 3.51648,-6.19028 -0.69985,-1.82377 -13.2023,-2.37739 -30.72379,-1.36051 -8.85533,0.51393 -20.5282,0.93443 -25.93966,0.93443 h -9.83904 l 9.69443,-19.29682 c 5.33195,-10.61325 11.01232,-20.8963 12.62307,-22.85122 3.30504,-4.01123 3.57588,-5.36895 1.44426,-7.24011 -2.40122,-2.10781 -23.0597,-13.06431 -41.56238,-22.04315 -9.44696,-4.58435 -17.17629,-8.50429 -17.17629,-8.71096 0,-1.36928 16.243,-14.15141 23.6678,-18.62493 18.35117,-11.05681 34.0106,-23.78707 34.0106,-27.64877 0,-1.34477 -1.80263,-2.56423 -8.27006,-5.59462 -14.09232,-6.60313 -49.10342,-20.5342 -64.73435,-25.75809 -15.71178,-5.25092 -30.72368,-11.63725 -30.02233,-12.77205 0.22921,-0.37087 1.84278,-1.14023 3.58572,-1.70969 1.74294,-0.56947 11.18458,-4.56669 20.98143,-8.88272 19.06492,-8.39913 41.01311,-17.01554 55.72451,-21.8763 11.07046,-3.65777 12.55654,-4.42175 12.55654,-6.45528 0,-2.32051 -7.59056,-12.20764 -29.78482,-38.79639 -22.44735,-26.89195 -28.14726,-33.40229 -40.61676,-46.39178 -5.02369,-5.23318 -8.45041,-9.43218 -7.86062,-9.63218 0.57508,-0.19502 7.63645,1.00188 15.69192,2.65976 8.05547,1.65789 17.89072,3.42476 21.85611,3.92639 14.51387,1.83603 48.15344,7.66695 56.39904,9.77594 4.66129,1.19223 12.86774,4.08477 18.23655,6.42788 11.97242,5.22511 17.96887,6.89818 20.82792,5.81116 2.0063,-0.76279 2.08085,-1.0782 2.08085,-8.80344 0,-12.11483 -2.28431,-37.57994 -4.62484,-51.55698 -6.14822,-36.71557 -6.04991,-60.57929 0.31839,-77.29219 l 0.90609,-2.37791 5.72918,5.7899 c 7.69196,7.77346 22.81717,20.28121 36.26482,29.9891 13.69414,9.88582 29.23977,22.84532 35.21313,29.35517 2.49004,2.71368 8.85757,10.37312 14.15006,17.02098 6.22994,7.82538 10.18301,12.08702 11.21184,12.08702 1.96741,0 3.7507,-1.71653 17.03635,-16.39845 21.87673,-24.17592 45.10238,-43.25515 65.73641,-54.00068 24.17194,-12.58795 36.03453,-19.69121 52.23437,-31.27769 1.56949,-1.12253 1.62642,-0.89734 1.6085,6.36159 -0.046,18.64483 -2.36432,40.21458 -6.78004,63.08318 -5.28564,27.37378 -7.44915,42.11883 -8.17385,55.70753 l -0.55081,10.3282 3.30853,0.69856 c 5.63732,1.19025 27.34205,0.70502 39.35753,-0.87987 6.29797,-0.83073 25.00104,-3.75709 41.56238,-6.50304 32.82732,-5.44291 42.31345,-6.76225 48.62117,-6.76225 h 4.13455 l -7.92925,6.09866 c -11.84887,9.11335 -27.3809,25.1604 -32.9515,34.04412 -15.14984,24.16018 -28.41741,39.10541 -43.25881,48.72882 -11.22101,7.27589 -12.25761,8.14858 -11.62796,9.78942 0.64421,1.67876 18.80452,10.54319 27.82324,13.58111 3.54248,1.19326 10.41299,3.16573 15.26782,4.38326 32.72599,8.20724 60.99199,16.25364 60.99199,17.36239 0,1.63854 -14.56043,11.31208 -25.44635,16.90586 -6.58787,3.38519 -17.27758,7.88838 -25.17099,10.60359 -18.88214,6.49519 -25.43236,9.17051 -36.74848,15.00927 -11.36857,5.86583 -14.91586,8.43162 -14.20785,10.27668 0.27354,0.71282 3.07202,2.73589 6.21886,4.4957 3.14683,1.75981 10.6065,7.15331 16.57702,11.98554 5.97053,4.83225 16.50021,12.63398 23.3993,17.3372 6.89909,4.70321 13.0301,9.0207 13.62447,9.59442 0.86344,0.83341 0.0961,1.34934 -3.81695,2.56642 -13.02474,4.05108 -27.89654,11.31981 -42.42488,20.73557 -7.20956,4.67248 -8.68706,5.99155 -8.68224,7.75121 0.008,2.76747 5.64107,13.08379 11.81129,21.6294 7.96195,11.02713 19.62865,30.11152 18.40781,30.11152 -0.24446,0 -2.95003,-0.58107 -6.01238,-1.29128 -9.32831,-2.16338 -42.99794,-7.18631 -48.18676,-7.18865 -4.49495,-0.002 -4.87671,0.1474 -4.87074,1.90629 0.003,1.04966 0.768,4.3895 1.69874,7.42185 1.93146,6.29272 3.64506,19.12305 3.23612,24.22998 l -0.27617,3.44878 z"
       id="path1917"
       transform="scale(0.26458333)" /><path
       style="fill:#e0cd81;fill-opacity:1;stroke-width:0.848212"
       d="m 369.82035,957.08877 c -35.26579,-5.17942 -59.13244,-18.74613 -72.16276,-41.02001 -4.48504,-7.66669 -4.62946,-8.61516 -1.20756,-7.93079 5.26991,1.05398 2.97098,-2.53024 -9.96649,-15.53857 -7.37262,-7.41299 -13.67978,-14.57277 -15.35655,-17.43244 -7.3364,-12.51205 -9.5102,-23.05604 -7.34963,-35.64933 3.22119,-18.77531 12.77724,-28.95364 30.59488,-32.58718 5.77261,-1.1772 7.83901,-1.22357 14.67428,-0.32931 8.20403,1.07335 10.19431,0.64846 9.19243,-1.96241 -0.77433,-2.01786 -6.21554,-3.06954 -15.85144,-3.06377 -14.12406,0.008 -23.28967,3.29313 -32.1946,11.53751 l -4.97108,4.60235 -0.50122,-3.20012 c -0.27567,-1.76005 -1.25881,-11.78825 -2.18475,-22.28487 -4.47153,-50.68965 -4.59104,-85.64481 -0.3741,-109.41932 3.34863,-18.87911 12.3282,-36.28853 26.16439,-50.72702 19.37777,-20.22129 45.14302,-32.27999 79.25283,-37.09205 13.44731,-1.89708 37.06321,-1.32692 49.40403,1.19278 23.37485,4.77258 45.02193,15.7056 59.23178,29.91545 17.23779,17.23779 24.1743,35.07127 27.17202,69.85812 2.13152,24.73508 3.50044,87.17443 2.06821,94.33556 l -0.50332,2.51663 -5.64622,-2.1354 c -4.92881,-1.86407 -7.0185,-2.13982 -16.44675,-2.17029 -11.05295,-0.0357 -13.27329,0.5528 -12.24043,3.24442 0.42062,1.09613 2.15634,1.32933 9.89383,1.32933 18.29637,0 28.6562,6.28754 35.76714,21.70763 2.47956,5.37694 2.73244,6.73793 3.07214,16.5334 0.4574,13.19002 -1.23779,20.85562 -7.40589,33.48919 -5.595,11.45972 -12.79229,21.02956 -23.89936,31.77768 -5.07682,4.91275 -9.23059,9.1934 -9.23059,9.51254 0,0.31914 0.72255,0.96696 1.60566,1.43958 1.24879,0.66834 2.30775,0.38287 4.76461,-1.2844 1.73742,-1.17904 3.35414,-1.94852 3.59273,-1.70994 0.23858,0.23858 -0.84112,2.4522 -2.39932,4.91914 -13.34419,21.12658 -30.29271,34.76166 -52.4521,42.1977 -12.93803,4.34163 -20.54721,5.36315 -41.62919,5.58869 -10.96314,0.11729 -21.07806,0.045 -22.47761,-0.16048 z m 22.64971,-8.57591 c 1.20224,-1.28292 2.97067,-3.89918 3.92984,-5.81391 1.63759,-3.26903 2.01829,-3.51428 6.24285,-4.02163 2.47441,-0.29718 5.71014,-0.54363 7.19052,-0.54769 2.85732,-0.008 7.19374,-3.04003 8.93596,-6.24839 0.54267,-0.99935 1.41458,-3.69371 1.93759,-5.98748 l 0.95091,-4.17049 7.29673,-1.93701 c 15.67586,-4.16132 27.83498,-9.76085 38.41025,-17.68872 29.83985,-22.36973 46.10363,-57.73263 36.42164,-79.19288 -4.04386,-8.96331 -10.04033,-14.2899 -20.37409,-18.09804 -4.22753,-1.55791 -6.83001,-1.8528 -16.47166,-1.86647 -13.15886,-0.0187 -11.80099,-0.39256 -36.47311,10.04375 -9.09707,3.84807 -18.47464,7.63075 -20.83906,8.40598 -13.63243,4.46967 -39.06782,6.756 -54.25989,4.87729 -4.21636,-0.52141 -14.90383,-2.93339 -23.74993,-5.35996 -14.25003,-3.90892 -17.0509,-4.41715 -24.56593,-4.45764 -7.44152,-0.0401 -9.05445,0.2259 -13.14729,2.16819 -6.53868,3.10299 -11.93346,8.20646 -15.30453,14.47813 -2.65533,4.94006 -2.90741,6.06492 -3.20704,14.31088 -0.28516,7.84757 -0.0664,9.69349 1.77661,14.99312 6.00114,17.25629 24.86099,34.87688 51.08754,47.73064 5.5982,2.74371 14.28177,6.39371 19.29682,8.11111 l 9.11828,3.12256 0.0187,3.50182 c 0.0103,1.92599 0.73407,5.07733 1.60851,7.00298 1.28421,2.82803 2.33823,3.78697 5.48215,4.98764 2.64861,1.01152 4.97,1.31413 7.26528,0.9471 3.76704,-0.60237 5.1343,0.73251 5.1343,5.01275 0,1.44051 1.04663,3.30773 2.88392,5.14503 2.49708,2.49708 3.4429,2.88392 7.05111,2.88392 3.45063,0 4.54306,-0.40109 6.35309,-2.33258 z M 380.04028,817.27267 c 5.95953,-3.49252 11.2791,-13.11459 14.84825,-26.85757 1.98267,-7.63427 2.05103,-9.95977 0.3124,-10.62695 -2.22553,-0.85402 -3.67186,1.54042 -5.94813,9.84731 -3.85582,14.07119 -8.45195,21.81692 -14.42705,24.31348 -5.75044,2.40269 -13.64317,-2.59265 -15.63489,-9.89538 -2.40568,-8.82048 0.61812,-30.19861 6.76008,-47.79347 2.33833,-6.6986 2.27648,-8.13727 -0.34987,-8.13727 -2.75271,0 -3.84101,2.20062 -7.58492,15.33719 -7.37895,25.89125 -7.31821,42.29114 0.18628,50.29413 5.42883,5.78944 15.25995,7.37344 21.83785,3.51853 z M 320.2663,785.90585 c 12.31393,-1.85626 21.98717,-6.04712 21.98717,-9.52577 0,-1.69567 -2.93453,-1.17704 -9.80004,1.73201 -6.97289,2.95454 -16.00986,4.21816 -26.67307,3.72963 -10.81047,-0.49527 -15.95798,-2.28059 -23.74993,-8.23718 -3.03236,-2.3181 -6.18135,-4.22861 -6.99775,-4.24558 -2.49625,-0.0519 -1.68562,2.82741 1.69642,6.02555 10.81394,10.22591 24.13757,13.44574 43.5372,10.52134 z m 126.97723,-0.45667 c 14.57633,-1.31424 25.61354,-4.79258 32.49057,-10.23929 3.37854,-2.67585 4.3184,-5.55287 2.09298,-6.40685 -0.67626,-0.2595 -2.68016,0.68292 -4.45312,2.09426 -8.67221,6.9034 -19.12954,9.66006 -37.15203,9.79364 -6.53123,0.0484 -15.02395,-0.25312 -18.87271,-0.67008 -6.72978,-0.72908 -6.99775,-0.69172 -6.99775,0.97566 0,2.08703 5.05224,3.52377 15.66377,4.45444 3.74762,0.32869 7.19554,0.6396 7.66205,0.69093 0.46652,0.0513 4.77132,-0.26039 9.56624,-0.69271 z M 328.25797,768.78007 c 8.33467,-1.57819 13.55879,-3.70802 20.96935,-8.54905 13.95324,-9.11512 21.01714,-24.12009 21.01714,-44.64417 0,-14.24781 -3.41514,-22.7554 -12.51019,-31.1646 -9.27093,-8.57184 -21.63915,-12.92554 -36.6861,-12.91377 -27.17447,0.0213 -50.57923,15.93395 -55.0475,37.42629 -2.15565,10.3687 -0.52723,26.32772 3.76404,36.88859 8.26629,20.34347 29.10399,28.52159 58.49326,22.95671 z M 449.37163,769.76 c 14.94988,-2.60704 27.2152,-9.05268 36.80757,-19.34302 6.99816,-7.50736 10.33794,-14.56501 11.00008,-23.24548 0.76677,-10.05201 -0.7616,-18.02324 -5.18414,-27.03772 -3.12752,-6.37485 -4.9383,-8.80833 -10.52861,-14.14929 -6.91014,-6.60189 -15.90014,-11.81068 -24.70447,-14.31368 -5.99959,-1.70564 -26.34723,-1.45976 -33.08026,0.39973 -19.15315,5.28963 -32.27468,18.14125 -36.89719,36.13819 -3.23713,12.60324 -2.20319,28.33424 2.5599,38.9478 2.60059,5.79489 10.46715,13.9919 16.26782,16.95119 6.99216,3.56713 20.78113,6.40895 33.01412,6.80399 1.92159,0.0621 6.75692,-0.45621 10.74518,-1.15171 z M 324.44102,657.60188 c 21.70013,-8.62105 30.36148,-10.61727 51.24123,-11.8098 14.95738,-0.85428 35.22425,2.29566 69.62895,10.82194 18.64872,4.62159 21.48946,4.73045 25.93036,0.99367 8.456,-7.11525 5.88999,-17.26391 -5.93634,-23.47847 -13.28905,-6.9832 -39.32062,-14.52017 -58.84316,-17.03698 -11.48367,-1.48046 -33.93806,-1.68202 -45.12383,-0.40507 -26.57009,3.03323 -54.54816,12.54808 -68.75078,23.38094 -6.93036,5.28605 -7.25187,16.80926 -0.59077,21.17379 6.96108,4.56107 13.70608,3.80433 32.44434,-3.64002 z"
       id="path1990"
       transform="scale(0.26458333)" /><path
       style="fill:#e0cd81;fill-opacity:1;stroke-width:0.848212"
       d="m 360.9038,955.19352 c -23.63355,-5.16434 -41.19466,-13.97109 -53.22592,-26.69239 -4.55261,-4.8137 -12.92396,-17.12445 -12.92416,-19.00602 -6e-5,-0.58314 0.9316,-1.06026 2.07035,-1.06026 4.76983,0 3.62339,-1.85546 -9.74045,-15.76453 -11.70753,-12.18517 -15.79612,-17.391 -18.7674,-23.89573 -6.59905,-14.44669 -6.40362,-29.01496 0.57961,-43.20663 4.53431,-9.21484 11.66381,-14.60746 23.3737,-17.67943 4.39495,-1.15296 7.46862,-1.32168 15.84341,-0.86964 l 10.39059,0.56084 v -2.0786 c 0,-3.04348 -3.57012,-3.94271 -15.60643,-3.9309 -15.25844,0.0149 -21.97951,2.22008 -32.02705,10.50777 l -5.57778,4.60081 -0.54777,-5.22674 c -5.19722,-49.59128 -6.43442,-99.3475 -3.05856,-123.0056 3.06679,-21.4921 11.57533,-39.35581 26.15993,-54.92286 16.13172,-17.21838 35.92514,-28.2639 62.12899,-34.67046 15.3117,-3.74354 24.06633,-4.54244 43.86616,-4.00294 19.15016,0.52179 24.64971,1.39079 39.03558,6.16811 23.24771,7.72021 42.66886,21.86613 54.44158,39.654 10.76534,16.26579 14.8729,35.03105 16.95657,77.46562 1.03153,21.00732 1.5477,72.81164 0.73361,73.62722 -0.28924,0.28977 -2.57941,-0.29003 -5.08927,-1.28846 -5.05802,-2.01207 -18.80472,-3.15247 -25.6418,-2.12719 -3.1583,0.47362 -3.94384,0.92427 -3.94384,2.26249 0,2.108 -0.0472,2.09655 13.072,3.16901 9.48018,0.77497 11.66638,1.24719 16.27279,3.51492 6.46957,3.18496 11.67362,8.73204 15.65962,16.69187 2.83694,5.66519 2.91621,6.10564 3.2038,17.80094 0.25107,10.21028 0.0271,12.96798 -1.5072,18.56069 -1.8993,6.92301 -7.67065,19.20181 -12.11077,25.76622 -3.85127,5.69383 -13.22787,16.59854 -20.11247,23.39023 -3.29761,3.2531 -5.99565,6.37637 -5.99565,6.94058 0,1.78903 3.34339,2.2159 5.6285,0.71864 3.75978,-2.4635 3.28765,-0.61526 -1.72965,6.771 -14.23743,20.95981 -34.9469,34.73675 -61.30225,40.78121 -4.24416,0.97337 -12.12436,1.42442 -29.53831,1.69073 -20.88571,0.31939 -24.62067,0.17292 -30.97006,-1.21452 z m 31.94599,-6.68066 c 1.19199,-1.28292 2.89022,-3.74643 3.77383,-5.47446 1.69223,-3.30935 1.87483,-3.38129 11.29259,-4.4491 7.59773,-0.86146 11.13478,-4.32023 13.24551,-12.9524 0.79781,-3.26278 1.19154,-3.66046 4.45432,-4.49906 8.66585,-2.22732 22.0512,-7.07886 28.1849,-10.21567 19.0939,-9.76472 35.9019,-26.80117 45.36428,-45.98086 11.1011,-22.50128 10.07175,-41.14354 -2.92778,-53.02438 -6.93445,-6.33769 -13.72729,-8.77306 -25.90399,-9.28708 -5.3691,-0.22665 -11.94773,-4.9e-4 -14.63305,0.50305 -2.68325,0.50315 -12.60732,4.12569 -22.05351,8.05009 -32.65437,13.56619 -37.08144,14.56664 -64.25065,14.5197 l -18.23655,-0.0315 -17.38834,-4.62348 c -16.22917,-4.31525 -18.03861,-4.62415 -27.14278,-4.63366 -9.19835,-0.01 -10.00882,0.13076 -14.21673,2.4622 -5.82683,3.22842 -12.47449,10.33177 -15.16134,16.20064 -1.98734,4.34092 -2.12304,5.43791 -1.86258,15.058 0.26759,9.88368 0.42533,10.67782 3.32449,16.73757 9.74099,20.36033 34.34779,39.01253 67.78211,51.37953 l 9.75444,3.60806 0.52135,4.71193 c 0.907,8.19723 3.65281,10.70386 12.58814,11.49163 l 5.47558,0.48275 0.88601,3.55979 c 0.4873,1.95789 2.00708,4.72518 3.37728,6.14954 2.16986,2.25562 3.0779,2.58974 7.03825,2.58974 3.86946,0 4.8699,-0.34756 6.71422,-2.33258 z M 379.22938,818.0061 c 1.58385,-0.75159 4.0925,-2.7478 5.57479,-4.43604 5.09072,-5.79802 11.73485,-23.27371 11.73485,-30.86556 0,-2.82032 -0.24314,-3.19785 -2.05958,-3.19785 -1.70835,0 -2.34461,0.7618 -3.73089,4.46695 -0.91921,2.45682 -2.12228,6.17835 -2.67349,8.27007 -2.75841,10.46748 -9.56294,20.36141 -14.92994,21.70844 -4.49638,1.12852 -11.7835,-4.11485 -13.48308,-9.70161 -1.02825,-3.37999 -0.59212,-16.55898 0.81668,-24.67872 0.74055,-4.2682 2.66825,-12.30878 4.28378,-17.86796 3.57618,-12.30595 3.6547,-13.581 0.83634,-13.581 -2.73901,0 -4.04244,2.14281 -6.70739,11.02675 -5.7323,19.10941 -7.86831,36.39488 -5.64346,45.66909 2.20553,9.19366 8.88471,14.55203 18.14059,14.55328 2.80608,3.8e-4 6.21198,-0.59292 7.8408,-1.36584 z m -51.0445,-33.342 c 8.13502,-2.14056 14.06859,-5.40407 14.06859,-7.73783 0,-2.30639 -1.74938,-2.12611 -10.6347,1.09601 -7.42232,2.69158 -7.93239,2.75669 -21.59735,2.75669 -13.29519,0 -14.22893,-0.11 -18.66066,-2.19836 -2.56584,-1.2091 -6.92319,-3.78554 -9.68301,-5.72543 -5.2115,-3.6632 -8.12944,-4.4618 -8.12944,-2.22491 0,2.31331 2.49562,5.20336 7.56213,8.75731 5.23383,3.67133 7.22851,4.59988 14.06727,6.54849 6.11924,1.7436 24.19387,1.04707 33.00717,-1.27197 z m 130.64432,-0.49798 c 13.29267,-2.76582 24.22743,-8.91837 24.22743,-13.63178 0,-2.9654 -2.12516,-2.62345 -7.84546,1.26239 -10.18622,6.91956 -22.22511,9.08111 -45.80394,8.22396 -14.52845,-0.52815 -15.05576,-0.48962 -15.05576,1.09997 0,4.71209 27.43846,6.59085 44.47773,3.04546 z m -129.7039,-15.2421 c 10.39579,-2.0691 19.9546,-7.11603 27.20192,-14.36226 9.98524,-9.98372 13.91724,-20.99131 13.91724,-38.96114 0,-7.28443 -0.41997,-11.06939 -1.68136,-15.1533 -3.95379,-12.80088 -15.90681,-23.24183 -31.45947,-27.47983 -8.02971,-2.18805 -24.5248,-2.00787 -33.26289,0.36334 -15.95419,4.32939 -28.8221,14.18106 -35.03663,26.82403 l -3.31381,6.7417 0.0179,13.19128 c 0.0192,14.20463 1.0482,19.86794 5.20899,28.66915 5.29076,11.19143 16.90866,19.19919 31.16323,21.4796 5.92063,0.94717 19.07557,0.31341 27.24493,-1.31257 z m 127.48493,-0.38983 c 19.18568,-5.53051 35.14323,-19.26109 39.52217,-34.00659 2.78364,-9.37351 1.37459,-23.42552 -3.39645,-33.87184 -6.41384,-14.04328 -23.50648,-27.1255 -38.91812,-29.78683 -9.23821,-1.59528 -25.79617,-0.57798 -33.68261,2.0694 -17.95113,6.026 -30.42527,19.69477 -34.18914,37.4634 -2.57142,12.13925 -1.09943,28.21087 3.43214,37.47307 2.55637,5.22503 10.79104,13.89954 15.38564,16.20745 13.35766,6.70966 36.97813,8.7379 51.84637,4.45194 z M 316.38301,660.86094 c 5.13168,-1.80313 13.61342,-4.84424 18.84832,-6.75804 13.71632,-5.01447 23.70939,-6.90104 39.67829,-7.49076 18.47373,-0.68222 31.94259,1.2482 66.83656,9.57934 20.32143,4.85185 23.18499,5.19615 27.23461,3.27448 7.06739,-3.3537 9.46721,-12.07555 5.09357,-18.51194 -1.20812,-1.7779 -3.95583,-4.34824 -6.10604,-5.71186 -8.35268,-5.29711 -29.05097,-12.20601 -49.7999,-16.62274 -10.61304,-2.25916 -11.96554,-2.34778 -36.049,-2.36205 -24.1332,-0.0143 -25.407,0.068 -35.85101,2.31718 -31.1081,6.69921 -56.46381,18.87724 -58.81585,28.24851 -1.01363,4.03864 0.14037,10.45414 2.30197,12.79745 5.19866,5.63565 13.07545,6.00257 26.62848,1.24043 z"
       id="path2000"
       transform="scale(0.26458333)" /><path
       style="fill:#e2cf7f;fill-opacity:1;stroke-width:0.848212"
       d="m 510.46812,927.93825 c -1.0185,-0.41039 -6.84878,-1.95956 -12.95617,-3.4426 l -11.10436,-2.69644 3.12652,-5.62191 c 1.71958,-3.09205 5.85174,-10.77481 9.18257,-17.07278 3.33082,-6.29797 8.45543,-15.01642 11.38802,-19.37434 2.93258,-4.35791 7.19768,-12.144 9.478,-17.30242 3.52967,-7.98469 5.01392,-10.27438 9.98428,-15.40235 3.21105,-3.31287 6.84662,-8.01461 8.07905,-10.44832 2.11864,-4.1837 2.24079,-5.10167 2.24079,-16.84019 v -12.41529 l -3.18017,-6.06152 C 532.41398,793.07808 523.3797,783.63 516.92893,780.57648 l -4.94793,-2.34214 -0.0429,-13.57139 c -0.0564,-17.82568 -1.4911,-55.02588 -2.61702,-67.85695 -1.14043,-12.99646 -3.67474,-28.75789 -5.93277,-36.89721 -7.96173,-28.69887 -33.14619,-52.63404 -67.46416,-64.11755 -14.43882,-4.83152 -23.38038,-6.30981 -41.5056,-6.86201 -30.56549,-0.9312 -55.66538,4.26219 -79.59858,16.46966 -12.03218,6.13718 -20.27558,12.376 -30.69617,23.23167 -15.25702,15.89402 -23.68956,31.7499 -28.0738,52.78771 -1.77395,8.51233 -2.5458,63.95846 -1.20014,86.21342 0.55005,9.09707 1.20824,20.73878 1.46264,25.87046 l 0.46256,9.33033 -3.13699,1.65713 c -1.72535,0.91143 -5.07343,3.77415 -7.44018,6.36159 -7.64631,8.35935 -10.37769,16.87593 -9.82505,30.63505 0.30778,7.66271 0.58072,8.73606 3.95113,15.53784 4.45163,8.98376 9.57308,14.29837 18.03233,18.71248 8.41362,4.39029 8.78821,4.71492 17.89933,15.51243 6.59533,7.81606 8.45426,10.69488 11.11663,17.21568 1.75834,4.30659 2.98103,8.04613 2.71708,8.31008 -1.08267,1.08266 -38.59448,7.00874 -38.59448,6.0971 0,-0.78492 4.6434,-13.32234 6.68424,-18.04775 0.95842,-2.21916 3.31304,-6.34743 5.23248,-9.17392 1.91943,-2.8265 3.29003,-5.65987 3.04578,-6.29637 -0.24425,-0.63651 -2.25858,-1.42939 -4.47629,-1.76196 -4.04448,-0.60651 -37.52923,0.0589 -53.20904,1.05741 l -8.37024,0.53302 9.11511,-18.00674 c 5.01331,-9.90371 10.59297,-20.21986 12.39925,-22.92478 1.80627,-2.70491 3.28414,-5.71939 3.28414,-6.69883 0,-2.34105 -6.65678,-6.2227 -36.25027,-21.13796 -12.70664,-6.40421 -23.01241,-11.91253 -22.90172,-12.24071 0.51072,-1.51412 16.21441,-13.2361 29.56677,-22.07005 8.10783,-5.36416 17.52892,-12.34157 20.93573,-15.50538 8.38369,-7.78566 8.26034,-8.89531 -1.52905,-13.75526 -8.48065,-4.21024 -48.89504,-20.39941 -65.31231,-26.16278 -19.4675,-6.83416 -30.15063,-11.47011 -28.78269,-12.49023 0.62395,-0.4653 40.51336,-17.25533 50.83616,-21.39767 5.36494,-2.15286 16.23727,-6.20686 24.16072,-9.00891 7.92346,-2.80205 14.8894,-5.49559 15.47987,-5.98564 1.73216,-1.43756 1.25167,-3.93572 -1.5364,-7.98805 -7.1593,-10.40568 -46.06601,-56.76314 -63.59092,-75.76876 -6.2115,-6.73633 -10.88421,-12.38434 -10.38379,-12.55114 0.50041,-0.16681 6.96294,0.85528 14.36118,2.27131 7.39823,1.41604 21.08524,3.74992 30.41557,5.18642 38.85055,5.98142 50.58573,8.77669 70.40158,16.76933 10.16817,4.10129 13.97982,4.91091 16.57678,3.52106 1.91014,-1.02227 1.91128,-1.03638 1.39431,-17.25393 -0.55175,-17.30856 -1.62013,-27.66765 -5.35437,-51.91653 -2.02937,-13.17803 -2.34825,-17.80994 -2.39,-34.71587 -0.0487,-19.72249 0.52083,-24.51927 3.91012,-32.93185 l 0.9654,-2.39623 6.44437,6.29804 c 8.86706,8.66571 15.94333,14.54376 33.6577,27.95842 28.30157,21.43211 32.78143,25.62925 51.39045,48.14738 6.59089,7.97541 9.31136,10.66638 10.97889,10.85987 1.9065,0.22122 4.24053,-1.91932 16.67181,-15.28966 15.46992,-16.63852 28.46462,-28.70626 41.62793,-38.65843 9.61267,-7.2677 17.25158,-11.9785 34.05903,-21.00372 14.51482,-7.79413 24.66634,-13.86949 35.36706,-21.16607 l 7.80018,-5.31876 0.25784,3.08984 c 0.4683,5.61221 -0.84677,28.34844 -2.28834,39.56296 -0.7796,6.06471 -3.07473,20.18744 -5.10029,31.38384 -4.85243,26.82197 -6.16486,35.95032 -7.1397,49.65889 -0.53636,7.54248 -0.5248,11.69999 0.0341,12.26057 1.19722,1.20086 32.5339,0.96484 41.89484,-0.31553 4.19865,-0.57428 22.90172,-3.48617 41.56238,-6.47086 26.91786,-4.3054 47.80584,-7.20911 51.85917,-7.20911 0.19943,0 -3.37169,3.00566 -7.93583,6.67924 -12.65804,10.18819 -25.86797,24.35326 -34.11302,36.57957 -15.85468,23.51037 -26.94066,35.72423 -40.77006,44.91797 -9.21439,6.1257 -11.87496,8.35026 -11.87496,9.9289 0,3.14684 22.75314,13.31332 40.29006,18.00226 52.78766,14.11411 62.35252,16.91916 62.61753,18.36354 0.24719,1.34724 -16.14077,11.89905 -26.14442,16.83378 -5.13169,2.53142 -14.67407,6.55822 -21.2053,8.94844 -22.28571,8.15586 -27.99349,10.51057 -38.75232,15.98704 -11.11393,5.65723 -14.83162,8.5034 -13.98591,10.70729 0.2693,0.70177 3.0299,2.88028 6.13468,4.84112 3.10476,1.96085 10.8688,7.60863 17.2534,12.55064 6.3846,4.94202 17.03163,12.76597 23.66006,17.38656 6.62842,4.6206 12.05168,8.6634 12.05168,8.98402 0,0.32061 -1.61051,1.06545 -3.5789,1.6552 -11.26867,3.37618 -29.60754,12.53676 -43.70891,21.83335 -6.15831,4.05999 -6.99775,4.91557 -6.99775,7.13238 0,3.50279 2.83062,8.74778 12.74965,23.62443 9.51306,14.26777 17.04009,26.51842 16.57757,26.98094 -0.16628,0.16628 -4.25648,-0.45829 -9.08934,-1.38794 -15.11685,-2.90787 -37.75303,-6.04069 -43.64712,-6.04069 h -5.65058 l 0.48068,3.6049 c 0.26437,1.9827 1.26323,7.23101 2.21969,11.66292 1.69132,7.83695 2.40534,21.25972 1.12515,21.15152 -0.34988,-0.0296 -1.46947,-0.38953 -2.48797,-0.79991 z"
       id="path2002"
       transform="scale(0.26458333)" /><path
       style="fill:#e2cf7f;fill-opacity:1;stroke-width:0.848212"
       d="m 510.62351,927.99849 c -0.93303,-0.37725 -6.76486,-1.92359 -12.95962,-3.4363 l -11.26321,-2.7504 3.96919,-7.32463 c 2.18304,-4.02855 5.87955,-10.95073 8.21444,-15.38264 2.3349,-4.43191 6.83134,-12.06581 9.99207,-16.96424 3.16075,-4.89842 7.9206,-13.48656 10.57745,-19.08476 3.77381,-7.95173 5.91012,-11.29195 9.76485,-15.26782 2.71382,-2.79909 6.29185,-7.35699 7.95118,-10.12864 l 3.01696,-5.03937 -0.0112,-12.77307 -0.0112,-12.77308 -3.51583,-6.36159 c -4.37256,-7.91177 -13.83875,-17.61929 -19.86551,-20.37197 l -4.319,-1.97267 -0.56477,-26.78515 C 509.84218,668.2482 504.6954,646.63552 480.97782,622.9944 c -22.4292,-22.35689 -54.17062,-34.26604 -91.46994,-34.31885 -19.8018,-0.0281 -36.85035,2.53003 -53.7444,8.06411 -19.26109,6.30947 -34.04528,14.93533 -47.27408,27.58214 -17.85301,17.06759 -27.57386,34.26221 -32.34688,57.21639 -1.90798,9.17581 -2.71963,61.79397 -1.31494,85.24529 0.5449,9.09707 1.21528,20.93998 1.48973,26.31757 l 0.49898,9.77744 -2.19108,0.99832 c -3.57105,1.62709 -9.13452,7.09708 -12.50929,12.29912 -4.37382,6.74202 -6.17379,14.58745 -5.75262,25.07353 0.2968,7.38933 0.65888,8.94365 3.45494,14.83136 3.88706,8.18504 10.17231,14.98416 17.57986,19.01715 8.41903,4.58368 10.29139,6.08182 16.2219,12.9798 8.96886,10.43195 10.61936,12.84496 13.34409,19.50887 4.17261,10.20502 4.82843,9.29155 -8.32648,11.59761 -16.04128,2.81206 -27.14156,4.34577 -27.14967,3.75124 -0.0333,-2.44393 7.80252,-20.83459 11.10671,-26.0672 2.30072,-3.64352 4.05943,-6.99567 3.90825,-7.44925 -0.1512,-0.45357 -1.39512,-1.1579 -2.76427,-1.56518 -2.50123,-0.74402 -38.13697,-0.22885 -54.52896,0.78831 l -8.78079,0.54486 8.93342,-17.73092 c 4.91339,-9.75201 10.48695,-20.12939 12.3857,-23.06087 1.89875,-2.93147 3.45227,-5.82307 3.45227,-6.42578 0,-2.70767 -9.77913,-8.40388 -42.41059,-24.70365 -9.09708,-4.54408 -16.73098,-8.44423 -16.96424,-8.66699 -0.78919,-0.75368 12.52217,-10.92942 25.87046,-19.77643 19.88356,-13.17845 30.95973,-22.55129 30.95973,-26.19863 0,-0.96109 -1.28015,-2.3655 -3.17556,-3.48383 -7.15373,-4.2208 -41.03956,-17.98979 -70.93841,-28.82473 -18.29861,-6.63117 -27.68025,-10.57714 -27.65602,-11.63227 0.0292,-1.26948 52.20454,-22.7855 74.62721,-30.77468 8.16404,-2.90884 15.32083,-5.67425 15.90397,-6.14534 1.75612,-1.41869 1.22082,-3.61624 -2.04605,-8.39961 -6.79558,-9.95013 -42.99122,-53.23542 -60.77643,-72.68071 -6.11222,-6.68275 -11.62784,-12.8853 -12.25693,-13.78345 -1.48653,-2.12232 -1.48926,-2.12244 12.09969,0.52243 6.06471,1.1804 19.42405,3.46765 29.68741,5.08277 43.46773,6.84043 51.80395,8.77422 71.30621,16.5413 12.02898,4.79073 15.57387,5.60633 18.21757,4.19146 1.90898,-1.02165 1.91154,-1.0524 1.39883,-16.82982 -0.54484,-16.76591 -1.73136,-28.31132 -5.40127,-52.55719 -1.92212,-12.69879 -2.27868,-17.90714 -2.33275,-34.07479 -0.0645,-19.29358 0.5568,-25.00184 3.53593,-32.48547 l 1.2827,-3.22215 6.46499,6.24653 c 8.2406,7.96215 18.41046,16.36737 35.38502,29.24515 26.4119,20.03742 31.09633,24.42072 48.37546,45.26571 9.5399,11.50864 11.48024,13.17357 14.15606,12.14676 0.74578,-0.28618 7.47509,-7.12052 14.95401,-15.18741 15.29984,-16.50265 28.70887,-28.83938 42.89474,-39.46449 9.14773,-6.85158 14.5729,-10.11094 41.08801,-24.68509 6.27858,-3.45105 16.64787,-9.72755 23.04286,-13.94778 l 11.62726,-7.67314 0.35114,2.39252 c 0.57578,3.92304 -0.86987,28.63489 -2.35647,40.28115 -0.76116,5.96318 -3.03774,20.00283 -5.05905,31.19923 -4.748,26.30003 -6.20492,36.5237 -7.1316,50.04449 -0.54378,7.93406 -0.49042,11.1918 0.19025,11.6152 3.05565,1.90077 26.62138,1.76095 42.56264,-0.25252 3.73213,-0.47139 22.0535,-3.29691 40.71416,-6.27894 26.98875,-4.31289 47.81263,-7.20427 51.8856,-7.20427 0.21396,0 -3.73885,3.38069 -8.78405,7.51263 -15.34574,12.56797 -24.7358,23.03595 -37.39135,41.68366 -13.17489,19.41296 -22.99856,29.73236 -38.07247,39.99377 -9.59582,6.53226 -10.88467,7.75297 -10.16523,9.62782 0.81683,2.12863 20.48171,11.27048 31.89184,14.82594 5.84962,1.82278 19.41466,5.59913 30.14454,8.3919 21.84315,5.68534 39.49497,10.88756 40.59563,11.96407 1.51335,1.48012 -18.76757,14.20987 -32.11352,20.15672 -4.19864,1.87089 -14.69527,5.95685 -23.32582,9.07992 -23.06702,8.34709 -44.95523,19.50928 -44.95523,22.92554 0,0.68263 2.92619,3.21572 6.50263,5.62908 3.57645,2.41336 13.40511,9.59846 21.84146,15.96688 8.43635,6.36842 18.8695,14.01192 23.18478,16.98556 4.31528,2.97363 7.84596,5.644 7.84596,5.93414 0,0.29015 -3.53068,1.80171 -7.84596,3.35903 -9.97008,3.59806 -26.11268,11.64265 -35.41284,17.64783 -8.9957,5.8086 -11.02676,7.66273 -11.02676,10.06627 0,2.60017 5.01779,11.86031 11.67835,21.55199 6.71077,9.7647 18.10358,28.17921 17.69,28.5928 -0.16422,0.16422 -5.40792,-0.64292 -11.65267,-1.79364 -16.3375,-3.01051 -35.53505,-5.59387 -41.56934,-5.59387 h -5.20616 l 0.48068,3.6049 c 0.26437,1.9827 1.26323,7.23101 2.21969,11.66292 1.69132,7.83695 2.40534,21.25972 1.12515,21.15152 -0.34988,-0.0296 -1.39955,-0.36242 -2.33258,-0.73967 z"
       id="path2970"
       transform="scale(0.26458333)" /><path
       style="fill:#e0cd81;fill-opacity:1;stroke-width:0.848212"
       d="m 296.75415,657.88766 c -3.18087,-1.4473 -5.03951,-5.89857 -3.81156,-9.12832 3.75121,-9.86646 36.77805,-23.0224 67.97154,-27.07587 11.39015,-1.4801 34.9008,-1.25263 46.22754,0.44726 16.52063,2.47938 34.76876,7.42112 47.92397,12.97818 12.16581,5.13913 15.26781,7.93023 15.26781,13.73763 0,2.71893 -4.09267,6.82119 -6.80524,6.82119 -0.87219,0 -6.6985,-1.32181 -12.94735,-2.93736 -15.20303,-3.9305 -31.72645,-7.54629 -45.13561,-9.87694 -8.60905,-1.49633 -14.09538,-1.90302 -25.02225,-1.85483 -23.1602,0.10213 -35.03284,2.56437 -58.83592,12.20185 -14.0057,5.67067 -20.13064,6.82675 -24.83293,4.68721 z"
       id="path6643"
       transform="scale(0.26458333)" /><path
       style="fill:#fdfddd;fill-opacity:1;stroke-width:0.848212"
       d="m 424.69052,764.73291 c -23.43033,-3.82626 -34.08898,-16.32638 -34.08898,-39.97844 0,-15.92525 4.69172,-28.22099 13.93969,-36.53217 9.74289,-8.75597 21.69115,-13.01418 36.52891,-13.01843 15.35023,-0.004 25.82402,4.23855 36.57453,14.81644 10.39462,10.22771 14.25113,19.30223 14.16431,33.32927 -0.0452,7.29799 -0.27632,8.3433 -3.11513,14.08726 -2.2744,4.60193 -4.65941,7.71411 -9.23455,12.05005 -6.86824,6.50917 -13.05893,10.13097 -23.04353,13.48137 -8.27919,2.77814 -21.1389,3.49343 -31.72525,1.76465 z m 20.84424,-31.78664 c 0.81008,-0.41632 2.52253,-1.17152 3.80545,-1.67824 2.80074,-1.1062 2.98827,-3.13282 0.70419,-7.61 -2.17754,-4.26834 -4.94868,-5.42643 -11.27259,-4.71096 -5.516,0.62406 -5.62137,0.73364 -5.95529,6.19294 -0.2202,3.60031 -0.09,3.82104 3.58846,6.08287 4.02137,2.47269 6.69118,2.97666 9.12978,1.72339 z"
       id="path7128"
       transform="scale(0.26458333)" /><path
       style="fill:#fdfddd;fill-opacity:1;stroke-width:0.848212"
       d="m 300.86805,764.70053 c -15.44403,-3.52406 -24.42214,-12.59418 -28.58384,-28.87678 -6.07018,-23.7495 2.03146,-43.42454 21.78625,-52.90849 22.899,-10.99342 45.86601,-8.50565 60.98375,6.60573 6.77956,6.7767 9.20767,12.35327 9.88041,22.69207 1.6863,25.91534 -11.92002,45.41781 -35.96396,51.54855 -7.65711,1.95242 -21.61701,2.41883 -28.10261,0.93892 z m 23.57297,-32.59177 3.81695,-0.52607 -0.29164,-4.64915 c -0.16041,-2.55703 -0.83817,-5.70601 -1.50616,-6.99774 -1.09423,-2.11602 -1.65794,-2.34861 -5.69213,-2.34861 -3.90545,0 -4.87817,0.36689 -7.61213,2.87109 -3.61322,3.30958 -3.74097,4.06276 -1.45099,8.55443 2.12388,4.16587 3.20349,4.87369 6.37451,4.17933 1.39955,-0.30646 4.26226,-0.79394 6.36159,-1.08328 z"
       id="path8303"
       transform="scale(0.26458333)" /><path
       style="fill:#eeebb4;fill-opacity:1;stroke-width:0.848212"
       d="m 525.45249,835.40804 c -0.0262,-14.16576 -3.64748,-25.56034 -10.88709,-34.25644 -3.41467,-4.10165 -3.51778,-4.40621 -3.51778,-10.39059 0,-7.51268 0.73158,-7.77014 7.41891,-2.61091 11.68653,9.0161 17.19616,21.21754 16.01375,35.46357 -0.56079,6.75651 -3.93138,15.17293 -7.29578,18.21767 -1.71259,1.54988 -1.71732,1.53233 -1.73201,-6.4233 z"
       id="path8305"
       transform="scale(0.26458333)" /><path
       style="display:inline;fill:#eeebb4;fill-opacity:1;stroke-width:0.848212"
       d="m 258.23795,869.40445 c -10.58722,-5.45084 -17.99003,-22.35853 -16.04165,-36.63841 1.20158,-8.80654 7.4246,-19.4934 13.35243,-22.93027 2.50929,-1.45486 2.5585,-1.44753 3.03524,0.45197 1.50608,6.00071 1.5673,18.4562 0.12637,25.71081 -1.84664,9.29723 -1.36388,20.21401 1.26578,28.62331 0.99881,3.19407 1.69387,5.92564 1.54457,6.07017 -0.1493,0.14453 -1.62653,-0.43489 -3.28274,-1.28758 z"
       id="path8307"
       transform="scale(0.26458333)" /><path
       style="display:inline;fill:#e7e4bb;fill-opacity:1;stroke-width:0.848212"
       d="m 382.62583,944.6959 c -0.67602,-1.04966 -1.49317,-3.35307 -1.8159,-5.11869 -0.32272,-1.76562 -1.27161,-4.0558 -2.10863,-5.08927 -1.3458,-1.66166 -2.19992,-1.85198 -7.38265,-1.64504 -6.9134,0.27605 -8.56043,-0.89827 -9.33243,-6.65393 -0.4621,-3.44526 -0.40234,-3.56366 1.55626,-3.08326 10.37292,2.54425 28.30477,2.75535 44.71077,0.52635 3.87698,-0.52675 7.20647,-0.80031 7.39886,-0.60792 0.96546,0.96547 -1.66708,6.77354 -3.93517,8.68201 -2.22368,1.87111 -3.39643,2.17505 -8.39222,2.17505 -4.97699,0 -6.17237,0.30717 -8.36042,2.14829 -1.40421,1.18156 -2.98948,3.47055 -3.52284,5.08664 -1.70488,5.16583 -6.5318,7.12591 -8.81563,3.57977 z"
       id="path8311"
       transform="scale(0.26458333)" /><path
       style="display:inline;fill:#e7d3bb;fill-opacity:1;stroke-width:0.848212"
       d="m 380.09738,947.74385 c -1.23937,-1.23935 -2.46989,-3.24326 -2.7345,-4.45311 -1.40801,-6.43759 -1.43245,-6.46229 -6.10819,-6.17162 -5.07425,0.31544 -9.55479,-1.48823 -11.65343,-4.69115 -0.7767,-1.18541 -1.60804,-4.31509 -1.8474,-6.95485 l -0.43521,-4.79956 -8.16875,-2.81058 c -11.83472,-4.07192 -32.41845,-14.46796 -41.24901,-20.83326 -14.01406,-10.10171 -23.77801,-21.02995 -29.08524,-32.55347 -1.98915,-4.31902 -2.22112,-5.85936 -2.25776,-14.99212 -0.047,-11.71391 1.10476,-15.0819 7.64536,-22.35662 5.4956,-6.11243 12.78504,-9.66482 20.78192,-10.12775 5.71627,-0.33091 8.13833,0.083 21.09749,3.60576 21.25157,5.77686 24.61522,6.38972 38.22431,6.96455 22.75742,0.96125 38.95134,-2.09109 61.50694,-11.59324 27.69671,-11.66798 28.78976,-12.02561 38.15795,-12.48452 18.43103,-0.90286 31.57602,5.47651 38.0822,18.48161 6.45248,12.89776 4.20917,29.36727 -6.41212,47.07506 -15.52551,25.88414 -37.67071,42.25858 -67.70956,50.06532 l -7.20027,1.87127 -0.97182,4.85135 c -1.73776,8.67484 -6.95435,12.07003 -18.7983,12.23478 -3.48683,0.0485 -3.70201,0.20679 -5.27749,3.88224 -2.50491,5.84373 -5.12851,8.04329 -9.5939,8.04329 -2.91702,0 -4.23563,-0.49578 -5.99322,-2.25338 z m 8.31253,-0.80545 c 0.73698,-0.2828 2.51294,-2.71491 3.94657,-5.40467 3.08958,-5.79666 4.92077,-6.80431 12.36528,-6.80431 5.14089,0 5.76497,-0.20702 8.3104,-2.75669 2.52901,-2.53322 4.70661,-8.55836 3.52148,-9.74349 -0.24853,-0.24852 -3.99466,0.006 -8.32476,0.56538 -17.43711,2.25299 -28.97034,2.13132 -44.13396,-0.4656 l -3.18079,-0.54474 v 3.12184 c 0,4.17102 2.08438,7.97904 4.73107,8.64331 1.18557,0.29756 3.8576,0.34918 5.93786,0.1147 5.12704,-0.57789 7.59034,1.36956 8.37825,6.62371 0.86337,5.75738 4.11203,8.31466 8.4486,6.65056 z m 1.04966,-28.95839 c -0.54976,-3.3878 -2.38394,-5.3041 -5.07678,-5.3041 -2.17706,0 -8.6827,3.27854 -10.50811,5.2956 -2.19391,2.42424 -0.21188,3.15839 8.56777,3.17353 l 7.53284,0.013 -0.51572,-3.17801 z m 17.04594,1.82504 c 3.1596,-0.48175 3.75254,-2.92642 1.35291,-5.57798 -2.35511,-2.60237 -6.77865,-2.02049 -10.1319,1.33276 -1.58616,1.58615 -2.88392,3.50778 -2.88392,4.27027 0,1.40469 2.31867,1.39971 11.66291,-0.025 z m -38.80569,-4.09981 c 0,-4.95453 -1.66301,-6.65111 -5.80881,-5.92608 -3.86971,0.67676 -10.72439,4.5202 -9.75547,5.46993 0.68484,0.67129 12.26196,3.9721 14.50402,4.13533 0.70022,0.051 1.06026,-1.1984 1.06026,-3.67918 z m 57.89046,0.59973 c 5.20216,-1.39512 6.01014,-2.66772 3.47343,-5.47075 -1.70371,-1.88258 -6.22628,-2.03534 -9.53913,-0.32219 -2.6092,1.34926 -5.17311,4.73815 -5.17311,6.83764 0,1.5146 2.59506,1.27338 11.23881,-1.0447 z m -76.39152,-5.73774 c 0.48439,-4.14911 -0.54439,-5.52523 -4.13064,-5.52523 -2.85409,0 -8.75214,2.79383 -8.75214,4.14578 0,0.71112 9.07659,4.1966 11.14601,4.28015 0.97272,0.0393 1.49547,-0.8338 1.73677,-2.9007 z m 93.56781,0.5019 c 3.44235,-1.39464 6.05155,-2.98212 6.20891,-3.77762 0.37225,-1.88167 -4.92353,-4.34601 -7.7922,-3.62601 -3.68029,0.92369 -8.62744,9.90883 -5.41446,9.83389 0.58314,-0.0136 3.73213,-1.10722 6.99775,-2.43026 z m -55.74176,-70.96682 c 2.27416,-1.59288 4.42494,-5.5258 4.42494,-8.09142 0,-1.82641 -0.16317,-1.85397 -7.77612,-1.31359 -4.27687,0.30358 -7.98165,0.7575 -8.23287,1.00871 -0.74028,0.74029 2.61107,6.34058 4.84674,8.09916 2.50089,1.9672 4.24324,2.04405 6.73731,0.29714 z m -18.9304,-2.15691 c 1.86576,-1.63815 2.99826,-3.40028 2.99826,-4.66516 0,-1.94764 -0.24393,-2.03267 -5.83146,-2.03267 -3.2073,0 -7.02425,-0.23856 -8.48212,-0.53013 -2.47748,-0.4955 -2.65045,-0.37081 -2.64749,1.90848 0.002,1.34123 0.75953,3.67912 1.68396,5.1953 1.49364,2.44975 2.10387,2.75668 5.48069,2.75668 3.04079,0 4.39887,-0.5259 6.79816,-2.6325 z m -20.11551,-3.88603 c 2.99585,-2.22776 3.63893,-4.50724 1.27231,-4.50986 -0.8164,-9.3e-4 -5.29983,-0.92482 -9.96318,-2.05316 -4.66334,-1.12833 -8.6008,-1.92951 -8.74991,-1.7804 -0.75769,0.75768 1.7669,7.14552 3.43575,8.69331 3.46486,3.21352 9.41285,3.06492 14.00503,-0.34989 z m 65.50848,-1.29317 c 1.75614,-2.88774 3.01251,-7.28685 2.28801,-8.01135 -0.23867,-0.23867 -4.67428,0.64652 -9.8569,1.96709 -6.84775,1.74485 -9.35907,2.73071 -9.18916,3.60735 0.38879,2.00604 7.36022,5.15934 11.40643,5.15934 3.25095,0 3.89537,-0.32782 5.35162,-2.72243 z m -90.85094,-3.58323 c 1.29373,-0.66901 2.87244,-1.84319 3.50824,-2.60928 1.49116,-1.79675 0.61295,-2.39096 -6.88438,-4.65805 -7.45942,-2.25562 -9.24706,-2.21415 -9.20883,0.21366 0.0984,6.24925 6.83695,10.02609 12.58497,7.05367 z m 110.7618,-1.85514 c 2.05279,-0.78773 3.85495,-4.88358 3.85495,-8.76131 0,-1.88923 -0.17236,-3.43497 -0.38302,-3.43497 -0.71365,0 -14.45606,6.12281 -15.12465,6.73865 -1.08528,0.99966 0.28116,3.40425 2.67301,4.70386 2.35193,1.2779 6.6694,1.64032 8.97971,0.75377 z m 23.30226,-11.03835 c 2.32692,-2.95821 2.46635,-8.79184 0.21012,-8.79184 -2.01518,0 -13.84294,4.02476 -14.88236,5.06419 -1.99332,1.99331 4.41423,5.87209 9.79502,5.92937 2.38274,0.0254 3.53431,-0.49449 4.87722,-2.20172 z"
       id="path8451"
       transform="scale(0.26458333)" /><path
       style="display:inline;fill:#e7d3bb;fill-opacity:1;stroke-width:0.848212"
       d="m 380.26122,838.24532 c -1.19657,-1.28292 -2.59055,-3.14134 -3.09775,-4.12983 -0.86059,-1.67723 -0.66135,-1.83301 2.98349,-2.33259 5.8811,-0.80609 10.45458,-0.64482 10.45458,0.36865 0,2.6807 -4.61955,8.42635 -6.77486,8.42635 -0.76443,0 -2.36889,-1.04966 -3.56546,-2.33258 z"
       id="path9074"
       transform="scale(0.26458333)" /><path
       style="display:inline;fill:#a8923a;fill-opacity:1;stroke-width:0.848212"
       d="m 384.1333,949.34968 c -2.59254,-0.41845 -5.05518,-3.38554 -6.85456,-8.25868 l -1.566,-4.24106 -5.53285,-0.4241 c -8.81033,-0.67533 -9.99702,-1.92485 -12.37932,-13.03474 -0.69453,-3.23895 -0.80429,-3.31621 -8.70632,-6.12831 -10.12659,-3.60376 -29.85359,-13.38155 -38.48238,-19.07397 -12.62882,-8.33127 -24.66197,-21.22361 -30.81267,-33.01277 -2.31572,-4.43858 -2.43394,-5.20075 -2.43394,-15.69192 0,-10.63453 0.0894,-11.18812 2.51279,-15.56329 5.35504,-9.66786 14.50678,-15.43331 25.48067,-16.05242 6.09279,-0.34374 8.48227,0.0543 23.32583,3.88586 20.89886,5.39458 25.73832,6.1016 41.72238,6.09545 22.43804,-0.009 33.82952,-2.55538 60.56155,-13.53944 23.36976,-9.60253 23.33952,-9.5936 33.91604,-10.00965 19.18884,-0.75483 30.79587,5.38613 37.38542,19.77961 7.81083,17.06109 -1.71664,43.7635 -23.45437,65.73503 -13.99768,14.14821 -30.40134,23.39953 -51.06936,28.802 l -7.38644,1.93077 -0.95436,4.5971 c -1.62485,7.82686 -7.11823,12.1289 -15.48773,12.1289 -5.03485,0 -7.15466,1.31078 -9.45218,5.84472 -1.17441,2.31757 -2.53666,4.46183 -3.02725,4.76504 -1.59938,0.98847 -5.46131,1.76343 -7.30495,1.46587 z m 7.93546,-6.56225 c 3.93539,-6.0668 5.395,-7.00142 11.90432,-7.6226 3.14228,-0.29986 6.52336,-0.94064 7.51353,-1.42396 2.32063,-1.13273 5.40949,-6.63241 5.40949,-9.63151 v -2.33106 l -6.14953,0.55816 c -19.71171,1.78914 -42.76526,1.352 -48.6947,-0.92334 -1.98416,-0.76139 -1.47957,7.5637 0.62024,10.23316 1.56173,1.98541 2.34556,2.23492 7.02107,2.23492 6.59878,0 8.51249,1.27346 9.83775,6.54641 1.38286,5.50208 3.03258,7.16972 6.78043,6.85408 2.56256,-0.21583 3.41242,-0.87923 5.7574,-4.49426 z m -1.97608,-23.96199 c -1.52312,-6.56499 -4.95865,-7.70573 -12.18249,-4.04514 -4.58347,2.32263 -5.50358,3.30933 -4.79878,5.14603 0.36982,0.96374 2.32727,1.2317 8.99755,1.2317 h 8.5249 z m 15.2646,1.52548 c 3.80413,-0.88245 4.86412,-2.12352 3.9549,-4.63052 -0.83744,-2.30903 -4.12661,-3.87351 -6.97329,-3.3168 -2.81437,0.55039 -7.49629,5.02144 -7.49629,7.15865 0,1.31509 0.63409,1.59221 3.6049,1.57554 1.98269,-0.0111 5.09209,-0.36522 6.90978,-0.78687 z m -37.65746,-4.96073 c 0,-4.73812 -1.04484,-6.11426 -4.62275,-6.0885 -4.23566,0.0305 -12.93454,4.81897 -11.40209,6.2765 0.81408,0.77428 11.58909,3.79282 13.69226,3.83577 2.22728,0.0455 2.33258,-0.13616 2.33258,-4.02377 z m 58.73867,1.02672 c 3.19614,-1.05721 4.029,-1.72189 4.029,-3.21542 0,-2.86447 -1.63473,-3.91843 -6.0776,-3.91843 -3.31147,0 -4.58374,0.47574 -7.04016,2.6325 -1.94984,1.71198 -2.99826,3.3836 -2.99826,4.78046 0,2.0738 0.13911,2.12907 4.02901,1.60078 2.21595,-0.30095 5.84205,-1.1469 8.05801,-1.87989 z m -77.06597,-4.23448 c 0.82958,-2.16186 0.59434,-5.02523 -0.503,-6.12257 -2.39996,-2.39996 -12.96993,0.0597 -12.40676,2.88709 0.31441,1.57849 6.76911,4.45824 10.15307,4.52978 1.2955,0.0274 2.45916,-0.51897 2.75669,-1.2943 z m 94.26088,-1.14975 c 5.86811,-2.66073 6.73006,-4.18104 3.60959,-6.36669 -3.29501,-2.30792 -6.94549,-1.68936 -9.90194,1.67785 -3.08659,3.51543 -3.55486,7.18028 -0.91745,7.18028 0.94327,0 4.18768,-1.12115 7.2098,-2.49144 z m -56.28681,-70.66683 c 2.34023,-1.8936 4.10316,-5.19977 4.10316,-7.69498 v -2.4403 l -7.56428,0.29645 c -4.16034,0.16305 -7.83229,0.56494 -8.15987,0.89311 -1.05107,1.05292 0.36641,4.64105 2.90849,7.36235 2.65438,2.84152 6.33167,3.50982 8.7125,1.58337 z m -18.88827,-2.24879 c 1.56412,-1.46109 2.63435,-3.30728 2.63435,-4.54433 0,-1.92743 -0.39051,-2.12431 -5.2137,-2.62843 -2.86753,-0.29972 -6.68448,-0.54494 -8.48212,-0.54494 -3.07793,0 -3.26842,0.15076 -3.26842,2.58676 0,1.42272 0.58235,3.71289 1.2941,5.08927 1.18925,2.29975 1.66306,2.50251 5.84778,2.50251 3.85437,0 4.95824,-0.37791 7.18801,-2.46084 z m -20.76076,-3.43382 c 3.4913,-2.15774 4.04417,-4.86855 1.12955,-5.53834 -12.04659,-2.76835 -16.95037,-3.83481 -17.63325,-3.83481 -2.5934,0 1.15819,9.21041 4.42267,10.85794 2.80479,1.41552 8.52593,0.71238 12.08103,-1.48479 z m 66.63667,-2.55366 c 2.06822,-4.05404 2.26175,-7.6677 0.41065,-7.6677 -2.47503,0 -15.60589,3.58948 -17.08361,4.67001 -1.31213,0.95945 -1.33995,1.25544 -0.24235,2.57797 1.92782,2.32288 5.91261,3.70925 10.76578,3.74557 4.32544,0.0324 4.47853,-0.0504 6.14953,-3.32585 z m -90.04744,-3.45251 c 4.16895,-2.54173 3.30031,-4.28988 -3.23862,-6.51774 -3.03236,-1.03315 -6.75389,-1.89196 -8.27006,-1.90848 -2.57722,-0.0281 -2.75669,0.15834 -2.75669,2.86331 0,6.16768 8.09546,9.32458 14.26537,5.56291 z m 110.08273,-1.47149 c 2.57216,-1.71748 4.26238,-12.07403 1.97051,-12.07403 -0.50224,0 -4.12834,1.38123 -8.05801,3.0694 -7.88545,3.38755 -8.79064,4.84323 -4.90994,7.89579 2.2613,1.77874 8.97968,2.45613 10.99744,1.10884 z m 21.56298,-9.53938 c 1.86017,-0.99553 3.44174,-5.9101 2.75144,-8.54982 -0.41655,-1.59286 -0.90437,-1.75626 -3.98336,-1.33424 -1.92977,0.2645 -5.70932,1.32305 -8.39899,2.35233 -4.01823,1.53769 -4.84511,2.18793 -4.63678,3.6463 0.50853,3.55989 10.03069,6.15301 14.26769,3.88543 z"
       id="path9076"
       transform="scale(0.26458333)" /></g></svg>
